<svg xmlns="http://www.w3.org/2000/svg" width="53.391" height="52.879" viewBox="0 0 53.391 52.879">
  <g id="logo" transform="translate(0 -0.01)">
    <g id="_1752916934912" transform="translate(0 32.563)">
      <path id="Path_1" data-name="Path 1" d="M2.171,14426.3H4.638v5.924H6.849V14418.4H4.638v5.922H2.171v-5.922H0v13.818H2.171Z" transform="translate(0 -14418.242)" fill="#393c41"/>
      <path id="Path_2" data-name="Path 2" d="M3403.274,14432.221h2.172v-4.58l2.744-9.238h-2.073l-1.658,6.3-1.658-6.3h-2.27l2.744,9.238Z" transform="translate(-3392.816 -14418.242)" fill="#393c41"/>
      <path id="Path_3" data-name="Path 3" d="M7078.536,14356.982h.987v2.545c0,.986-.435,1.344-1.126,1.344s-1.126-.357-1.126-1.344v-7.459c0-.99.435-1.363,1.126-1.363s1.126.373,1.126,1.363v1.477h2.053v-1.338c0-2.211-1.105-3.477-3.238-3.477s-3.238,1.266-3.238,3.477v7.184c0,2.213,1.105,3.475,3.238,3.475s3.238-1.262,3.238-3.475V14355h-3.04Z" transform="translate(-7059.049 -14348.73)" fill="#393c41"/>
      <path id="Path_4" data-name="Path 4" d="M12197.674,14420.373h3.748v-1.971h-5.921v13.818h5.921v-1.975h-3.748v-4.049h2.978v-1.973h-2.978Z" transform="translate(-12167.835 -14418.242)" fill="#393c41"/>
      <path id="Path_5" data-name="Path 5" d="M15390.361,14432.221h2.227V14418.4h-1.934v8.273l-2.23-8.273h-2.723v13.818h1.955v-10.008Z" transform="translate(-15350.795 -14418.242)" fill="#393c41"/>
      <path id="Path_6" data-name="Path 6" d="M19108.2,14432.221h2.17V14418.4h-2.17Z" transform="translate(-19064.85 -14418.242)" fill="#393c41"/>
      <path id="Path_7" data-name="Path 7" d="M20687.422,14357.543v1.977c0,.98-.436,1.336-1.127,1.336s-1.125-.355-1.125-1.336v-7.465c0-.986.438-1.359,1.125-1.359s1.127.373,1.127,1.359v1.482h2.049v-1.342c0-2.213-1.105-3.475-3.236-3.475s-3.232,1.262-3.232,3.475v7.184c0,2.209,1.105,3.475,3.232,3.475s3.236-1.266,3.236-3.475v-1.836Z" transform="translate(-20636.08 -14348.721)" fill="#393c41"/>
      <path id="Path_8" data-name="Path 8" d="M10542.4,14432.116V14418.3h2.171v13.816Z" transform="translate(-10518.485 -14418.14)" fill="#393c41"/>
    </g>
    <path id="Path_9" data-name="Path 9" d="M10548.822,21191.115a3.5,3.5,0,0,1-.826,2.35,3.666,3.666,0,0,1-4.811,0,3.616,3.616,0,0,1-.837-2.57v-1.334h2.174v1.477q0,1.342,1.132,1.355c.722,0,1.1-.43,1.117-1.275Z" transform="translate(-10518.433 -21141.473)" fill="#393c41" fill-rule="evenodd"/>
    <g id="_1789627462992" transform="translate(1.282 0.01)">
      <g id="Group_4" data-name="Group 4" transform="translate(15.559 0)">
        <path id="Path_10" data-name="Path 10" d="M13565.171,3086.067c.059,0,.119,0,.181-.01a2.373,2.373,0,0,0,1.144-.393,2.736,2.736,0,0,0,.681-3.594c-.331-.61-.657-1.2-1-1.8-.2-.353-1-2.086-1-2.087s-.807,1.734-1.007,2.087c-.347.6-.676,1.192-1,1.8a2.738,2.738,0,0,0,.678,3.594,2.376,2.376,0,0,0,1.143.393C13565.049,3086.062,13565.107,3086.065,13565.171,3086.067Z" transform="translate(-13548.866 -3071.197)" fill="#393c41" fill-rule="evenodd"/>
        <path id="Path_11" data-name="Path 11" d="M7425.341,3898.41c.05,0,.1,0,.148-.009a1.952,1.952,0,0,0,.938-.322,2.242,2.242,0,0,0,.555-2.945c-.267-.5-.535-.981-.816-1.474-.166-.29-.823-1.709-.824-1.71s-.662,1.42-.828,1.71c-.28.493-.549.976-.817,1.474a2.241,2.241,0,0,0,.56,2.945,1.931,1.931,0,0,0,.935.322C7425.238,3898.406,7425.289,3898.41,7425.341,3898.41Z" transform="translate(-7423.393 -3883.121)" fill="#393c41" fill-rule="evenodd"/>
        <path id="Path_12" data-name="Path 12" d="M10000.848,10.442c.081,0,.162-.006.244-.014a3.156,3.156,0,0,0,1.512-.52c1.625-1.107,1.684-3.08.9-4.756-.438-.8-.868-1.584-1.321-2.382-.267-.466-1.328-2.759-1.335-2.761s-1.068,2.294-1.333,2.761c-.453.8-.885,1.577-1.316,2.382-.787,1.675-.727,3.649.9,4.756a3.139,3.139,0,0,0,1.512.52C10000.688,10.437,10000.769,10.441,10000.848,10.442Z" transform="translate(-9991.867 -0.01)" fill="#393c41" fill-rule="evenodd"/>
      </g>
      <path id="Path_13" data-name="Path 13" d="M11080.561,5270.9c.029,0,.057,0,.082,0a1.082,1.082,0,0,0,.5-.172,1.2,1.2,0,0,0,.3-1.585c-.143-.267-.289-.527-.436-.792-.088-.156-.447-.92-.449-.92s-.352.764-.437.92c-.154.265-.3.524-.441.792a1.2,1.2,0,0,0,.3,1.585,1.082,1.082,0,0,0,.5.172C11080.51,5270.9,11080.535,5270.9,11080.561,5270.9Z" transform="translate(-11055.661 -5255.479)" fill-rule="evenodd"/>
      <path id="Path_14" data-name="Path 14" d="M9651.742,7637.123c-2.64.056-4.772,5.8-4.772,12.876,0,.154,0,.309,0,.46.2-1.628,2.185-2.9,4.6-2.9,2.483,0,4.886,1.348,5.015,3.042,0-.2,0-.4,0-.6,0-7.082-2.14-12.829-4.781-12.877h-.071Z" transform="translate(-9626.368 -7619.796)" fill="#d3ca31" fill-rule="evenodd"/>
      <g id="Group_5" data-name="Group 5" transform="translate(10.352 17.326)">
        <path id="Path_15" data-name="Path 15" d="M5138.1,7650.117c0-7.078,2.242-12.822,5.016-12.88-8.155.058-14.745,5.8-14.745,12.88,0,.188,0,.376.013.563.138-1.675,2.254-3.006,4.848-3.006,2.68,0,4.852,1.424,4.852,3.18a1.939,1.939,0,0,1,.019-.28C5138.1,7650.421,5138.1,7650.27,5138.1,7650.117Z" transform="translate(-5128.368 -7637.237)" fill="#5bbc70" fill-rule="evenodd"/>
        <path id="Path_16" data-name="Path 16" d="M11836.2,7637.221c2.775.045,5.02,5.791,5.02,12.876,0,.2,0,.4,0,.6,0,.046,0,.093,0,.14,0-1.756,2.369-3.179,5.049-3.179,2.529,0,4.6,1.266,4.833,2.882,0-.146.011-.294.011-.44,0-6.977-6.407-12.657-14.4-12.87-.156,0-.314-.006-.468-.006Z" transform="translate(-11820.982 -7637.221)" fill="#f58634" fill-rule="evenodd"/>
      </g>
      <g id="Group_6" data-name="Group 6" transform="translate(0 17.325)">
        <path id="Path_17" data-name="Path 17" d="M574.988,7649.757c0-7.076,6.59-12.821,14.744-12.878h-.178c-13.3,0-24.1,6.04-24.264,13.526.073-1.715,2.217-3.091,4.851-3.091,2.68,0,4.853,1.425,4.853,3.182,0-.059,0-.116.007-.176-.009-.187-.014-.374-.014-.563Z" transform="translate(-565.29 -7636.879)" fill="#00a859" fill-rule="evenodd"/>
        <path id="Path_18" data-name="Path 18" d="M12342.1,7639.851c7.994.212,14.4,5.895,14.4,12.871,0,.146,0,.294-.01.438a2.182,2.182,0,0,1,.021.3c0-1.757,2.2-3.179,4.852-3.179s4.777,1.373,4.852,3.089C12366.051,7646.027,12355.066,7640.076,12342.1,7639.851Z" transform="translate(-12315.383 -7639.845)" fill="#a8518a" fill-rule="evenodd"/>
      </g>
    </g>
  </g>
</svg>
